<svg width="153" height="116" viewBox="0 0 153 116" fill="none" xmlns="http://www.w3.org/2000/svg">
<path d="M0.431 2H17.519V3.856H2.543V29.84H15.023V31.696H2.543V50H0.431V2ZM63.5465 50H61.3065L52.2185 31.696H26.7465L17.8505 50H15.6105L39.5465 0.848L63.5465 50ZM51.4505 29.84L39.4185 5.456L27.6425 29.84H51.4505ZM70.681 2H72.729C80.3663 2 86.2543 4.09066 90.393 8.272C94.5743 12.4107 96.665 18.32 96.665 26C96.665 30.3947 95.5983 34.4267 93.465 38.096C91.3317 41.7653 88.4303 44.6667 84.761 46.8C81.1343 48.9333 77.1237 50 72.729 50H70.681V2ZM73.241 48.016C77.1663 48.016 80.7503 47.056 83.993 45.136C87.2357 43.1733 89.7957 40.5067 91.673 37.136C93.593 33.7653 94.553 30.0533 94.553 26C94.553 18.9173 92.697 13.4773 88.985 9.68C85.3157 5.84 80.0677 3.92 73.241 3.92H72.729V48.016H73.241ZM127.656 51.28C123.176 51.28 119.016 50.1067 115.176 47.76C111.336 45.4133 108.285 42.2987 106.024 38.416C103.805 34.4907 102.696 30.288 102.696 25.808C102.696 21.3707 103.826 17.232 106.088 13.392C108.349 9.50933 111.4 6.43733 115.24 4.176C119.08 1.872 123.24 0.719997 127.72 0.719997C132.242 0.719997 136.402 1.85066 140.2 4.112C143.997 6.37333 147.005 9.44533 149.224 13.328C151.485 17.168 152.616 21.328 152.616 25.808C152.616 30.416 151.485 34.6827 149.224 38.608C147.005 42.4907 143.976 45.584 140.136 47.888C136.338 50.1493 132.178 51.28 127.656 51.28ZM127.656 49.424C131.752 49.424 135.549 48.3787 139.048 46.288C142.546 44.1547 145.32 41.296 147.368 37.712C149.458 34.0853 150.504 30.16 150.504 25.936C150.504 21.7547 149.48 17.872 147.432 14.288C145.384 10.704 142.61 7.86666 139.112 5.776C135.613 3.64266 131.816 2.576 127.72 2.576C123.581 2.576 119.762 3.64266 116.264 5.776C112.765 7.86666 109.97 10.704 107.88 14.288C105.832 17.872 104.808 21.7547 104.808 25.936C104.808 30.16 105.832 34.0853 107.88 37.712C109.97 41.296 112.765 44.1547 116.264 46.288C119.762 48.3787 123.56 49.424 127.656 49.424ZM29.1185 67H46.2065V68.856H31.2305V94.84H43.7105V96.696H31.2305V115H29.1185V67ZM52.931 67H70.147V68.856H55.043V94.968H67.651V96.824H55.043V113.144H70.147V115H52.931V67ZM86.9165 115.896C81.5832 115.896 77.4445 113.699 74.5005 109.304V105.848C75.6525 108.408 77.3165 110.413 79.4925 111.864C81.7112 113.315 84.3565 114.04 87.4285 114.04C89.5618 114.04 91.5245 113.571 93.3165 112.632C95.1512 111.693 96.6018 110.371 97.6685 108.664C98.7352 106.957 99.2685 104.995 99.2685 102.776C99.2685 100.771 98.9272 99.0427 98.2445 97.592C97.5618 96.1413 96.4312 94.7547 94.8525 93.432C93.2738 92.0667 90.9912 90.4667 88.0045 88.632L85.9565 87.352C84.0792 86.2 82.5645 85.176 81.4125 84.28C80.2605 83.384 79.2578 82.3387 78.4045 81.144C77.2952 79.48 76.7405 77.56 76.7405 75.384C76.7405 72.4827 77.6792 70.2213 79.5565 68.6C81.4338 66.9787 83.8232 66.168 86.7245 66.168C90.6498 66.168 93.7645 67.6187 96.0685 70.52V73.784C95.0872 71.992 93.7432 70.584 92.0365 69.56C90.3298 68.536 88.4525 68.024 86.4045 68.024C84.2712 68.024 82.4792 68.6853 81.0285 70.008C79.5778 71.3307 78.8525 73.1013 78.8525 75.32C78.8525 77.496 79.5138 79.3733 80.8365 80.952C82.2018 82.488 84.4845 84.1733 87.6845 86.008C91.6098 88.312 94.6605 90.4027 96.8365 92.28C98.3725 93.688 99.4818 95.2453 100.165 96.952C100.89 98.6587 101.253 100.557 101.253 102.648C101.253 105.293 100.634 107.619 99.3965 109.624C98.1592 111.629 96.4525 113.187 94.2765 114.296C92.1005 115.363 89.6472 115.896 86.9165 115.896ZM112.541 68.856H101.469V67H125.597V68.856H114.653V115H112.541V68.856Z" fill="white"/>
</svg>
